# xmcd CD database file
#
# Track frame offsets:
#	150
#	21725
#	43747
#	80083
#	96819
#	127232
#	148057
#	170835
#	193222
#	217862
#
# Disc length: 3181 seconds
#
# Revision: 0
# Processed by: cddbd v1.5.2PL0 Copyright (c) Steve Scherf et al.
# Submitted via: CDex 1.51
#
DISCID=9f0c6b0a
DTITLE=Ron Carter - Dear Miles
DYEAR=2006
DGENRE=Jazz
TTITLE0=Gone
TTITLE1=Seven Steps To Heaven
TTITLE2=My Funny Valentine
TTITLE3=Bags' Groove
TTITLE4=Someday My Prince Will Come
TTITLE5=Cut And Paste
TTITLE6=Stella By Starlight
TTITLE7=As Time Goes By
TTITLE8=Bye Bye Blackbird
TTITLE9=595
EXTD=YEAR: 2006
EXTT0=
EXTT1=
EXTT2=
EXTT3=
EXTT4=
EXTT5=
EXTT6=
EXTT7=
EXTT8=
EXTT9=
PLAYORDER=
